<svg width="48" height="48" viewBox="0 0 48 48" fill="none" xmlns="http://www.w3.org/2000/svg">
<g clip-path="url(#clip0_135_16)">
<path d="M39.4654 15.5419C38.9545 15.3451 38.4394 15.1628 37.9204 14.9951C38.0076 14.5951 38.0878 14.2 38.1591 13.8118C39.3287 7.43681 38.5641 2.30102 35.9524 0.610069C33.4483 -1.01098 29.3532 0.679332 25.2173 4.72081C24.8097 5.11982 24.4111 5.53034 24.022 5.95196C23.7615 5.6716 23.4964 5.39667 23.2268 5.12733C18.8922 0.806069 14.5475 -1.01519 11.9386 0.680595C9.43683 2.3067 8.69602 7.1347 9.74902 13.1764C9.85378 13.7748 9.97206 14.37 10.1038 14.9616C9.48877 15.1579 8.89533 15.3667 8.3274 15.589C3.24542 17.5785 0 20.6962 0 23.9301C0 27.2701 3.48411 30.6202 8.77721 32.6515C9.20633 32.8156 9.63902 32.9675 10.0749 33.1073C9.93333 33.7445 9.80766 34.386 9.69802 35.0311C8.69415 40.968 9.47808 45.6819 11.9731 47.2976C14.5501 48.9663 18.8753 47.2513 23.0868 43.1177C23.4283 42.7816 23.7622 42.436 24.0884 42.0812C24.5098 42.5378 24.9425 42.981 25.3859 43.4105C29.4655 47.352 33.4945 48.9435 35.9871 47.3233C38.5616 45.6499 39.3984 40.5859 38.3121 34.4248C38.2265 33.9421 38.1305 33.4619 38.0243 32.9844C38.328 32.8833 38.6261 32.7793 38.9168 32.6711C44.4195 30.6242 47.9998 27.3147 47.9998 23.9301C47.9998 20.6844 44.6495 17.5456 39.4654 15.5419ZM38.2719 30.4859C38.0094 30.5833 37.7402 30.6774 37.4657 30.769C36.8582 28.6096 36.0384 26.3136 35.0351 23.9412C35.9925 21.6254 36.7808 19.3587 37.3712 17.2134C37.8623 17.373 38.3387 17.5412 38.7981 17.7187C43.2399 19.4358 45.9493 21.9741 45.9493 23.9301C45.9493 26.0134 43.0232 28.7181 38.2719 30.4859ZM36.3006 34.872C36.7809 37.5962 36.8494 40.0593 36.5312 41.985C36.2454 43.7153 35.6706 44.8688 34.9596 45.3309C33.447 46.3141 30.2121 45.0362 26.7233 41.6652C26.3109 41.2659 25.9084 40.8538 25.5164 40.4294C26.869 38.7686 28.2207 36.8379 29.5399 34.6934C31.8604 34.4623 34.0526 34.0842 36.0407 33.5682C36.1365 34.0004 36.2231 34.4351 36.3006 34.872ZM16.3642 45.161C14.8863 45.7469 13.7092 45.7638 12.9976 45.3031C11.4836 44.3227 10.8541 40.5376 11.7127 35.4606C11.8148 34.8607 11.9316 34.264 12.0631 33.6713C14.0292 34.1598 16.2055 34.5109 18.5315 34.7227C19.8597 36.821 21.2504 38.7496 22.652 40.4385C22.3541 40.7621 22.0492 41.0774 21.7375 41.3842C19.8751 43.212 18.0089 44.5088 16.3642 45.161ZM9.44058 30.473C7.10003 29.5747 5.1671 28.4073 3.84223 27.1334C2.65161 25.9888 2.05068 24.8522 2.05068 23.9301C2.05068 21.9675 4.65635 19.4644 9.00239 17.7631C9.52983 17.5568 10.0818 17.3621 10.6546 17.1793C11.2554 19.373 12.0433 21.6667 12.9941 23.9861C12.0309 26.3398 11.2318 28.6701 10.6252 30.8896C10.2273 30.7617 9.83235 30.6228 9.44058 30.473ZM11.7614 12.7341C10.8594 7.55786 11.4584 3.65323 12.9661 2.67323C14.5719 1.62944 18.1227 3.11765 21.8654 6.84902C22.1094 7.09289 22.3495 7.3417 22.5856 7.59533C21.191 9.27681 19.813 11.1911 18.4966 13.277C16.2391 13.512 14.0782 13.8892 12.0914 14.3947C11.969 13.8444 11.859 13.2906 11.7614 12.7341ZM32.4664 18.4747C31.9971 17.5646 31.5105 16.6659 31.0067 15.7793C32.5382 15.9968 34.0056 16.2854 35.3835 16.6383C34.9699 18.1271 34.4543 19.6835 33.8473 21.2793C33.4037 20.3342 32.9433 19.3992 32.4664 18.4747ZM24.0229 9.24081C24.9687 10.3913 25.9159 11.6758 26.8476 13.0694C24.9576 12.9692 23.0645 12.9688 21.1745 13.0682C22.1071 11.6873 23.0624 10.4046 24.0229 9.24081ZM15.5253 18.4905C15.0544 19.4075 14.6026 20.3367 14.1702 21.2774C13.5732 19.6873 13.0623 18.1238 12.6451 16.6139C14.0146 16.2699 15.4751 15.9886 16.9968 15.7751C16.4874 16.6671 15.9968 17.5726 15.5253 18.4905ZM17.0405 32.2488C15.4683 32.0518 13.9859 31.785 12.6168 31.4503C13.0406 29.9134 13.5627 28.3166 14.1727 26.6924C14.6067 27.6338 15.0604 28.5636 15.5334 29.481C16.0197 30.4242 16.5234 31.348 17.0405 32.2488ZM24.0796 38.7814C23.1076 37.6042 22.1382 36.3017 21.1915 34.9008C22.1106 34.9412 23.0476 34.9619 23.9999 34.9619C24.9783 34.9619 25.9454 34.9372 26.8973 34.8896C25.9626 36.3158 25.0189 37.6202 24.0796 38.7814ZM33.8666 26.6094C34.5083 28.2515 35.049 29.84 35.4784 31.3505C34.0868 31.7071 32.5842 31.9943 31.0009 32.2075C31.5082 31.3045 31.9995 30.3902 32.4745 29.4652C32.9573 28.525 33.4215 27.5728 33.8666 26.6094ZM30.6983 28.3149C29.9712 29.7331 29.2032 31.1244 28.3956 32.4865C26.9327 32.6028 25.4665 32.6606 23.9999 32.6598C22.5061 32.6598 21.0531 32.6075 19.654 32.5056C18.8253 31.1467 18.0427 29.753 17.3079 28.3275C16.5765 26.9097 15.8935 25.4611 15.26 23.985C15.8919 22.5086 16.573 21.0593 17.3019 19.6404L17.3017 19.6406C18.0303 18.2213 18.8067 16.8335 19.6291 15.4804C21.0565 15.3591 22.5203 15.296 23.9997 15.296C25.4858 15.296 26.9517 15.3598 28.3787 15.4819C29.1929 16.833 29.9643 18.216 30.6915 19.6282C31.4229 21.044 32.113 22.4862 32.7608 23.9524C32.1196 25.4336 31.4317 26.8887 30.6983 28.3149ZM34.9283 2.60459C36.5355 3.64544 37.1606 7.8427 36.1508 13.3469C36.0863 13.6981 36.0139 14.0558 35.9351 14.4185C33.9435 13.9023 31.7811 13.5185 29.517 13.28C28.1982 11.1711 26.8315 9.25386 25.4596 7.59407C25.8191 7.20491 26.1872 6.82585 26.5636 6.45723C30.1073 2.9947 33.4193 1.62754 34.9283 2.60459ZM23.9999 19.1174C26.3671 19.1174 28.2861 21.2722 28.2861 23.9301C28.2861 26.588 26.3671 28.7427 23.9999 28.7427C21.6327 28.7427 19.7137 26.588 19.7137 23.9301C19.7137 21.2722 21.6327 19.1174 23.9999 19.1174Z" fill="#00D8FF"/>
</g>
<defs>
<clipPath id="clip0_135_16">
<rect width="48" height="48" fill="white"/>
</clipPath>
</defs>
</svg>
