<svg width="48" height="48" viewBox="0 0 48 48" fill="none" xmlns="http://www.w3.org/2000/svg">
<g clip-path="url(#clip0_135_3)">
<path d="M16.0626 43.8222C12.0274 47.855 6.09632 48.4666 2.81612 45.1839C-0.465666 41.9036 0.145184 35.9725 4.17797 31.9375C8.21616 27.9001 9.65537 31.7811 12.9373 35.0629C16.2197 38.3448 20.0953 39.784 16.0626 43.8222Z" fill="#9CD8E2"/>
<path d="M15.3573 44.5256C11.3221 48.5584 5.3926 49.1701 2.11081 45.889C-1.16949 42.6072 -0.559428 36.6768 3.47414 32.6425C7.50772 28.609 8.95233 32.4854 12.2326 35.7664C15.5152 39.0481 19.3916 40.4881 15.3573 44.5256Z" fill="#80C1D1"/>
<path d="M13.3165 37.1331C12.9294 37.5187 12.3038 37.5202 11.9136 37.1339L10.8662 36.0857C10.4798 35.6955 10.4798 35.0699 10.8662 34.6836L38.6798 6.87144C39.0646 6.48361 39.6901 6.48361 40.0789 6.87144L41.1287 7.92045C41.5157 8.30908 41.5157 8.93467 41.1287 9.31946L13.3165 37.1331Z" fill="#6D4417"/>
<path d="M39.972 6.80148C39.5856 6.50574 39.0344 6.51576 38.6806 6.87195L10.8669 34.684C10.5131 35.0394 10.4999 35.5937 10.798 35.9785C11.1859 36.2758 11.7348 36.2642 12.0909 35.9104L39.9046 8.09827C40.2593 7.73982 40.2723 7.18853 39.972 6.80148Z" fill="#895D24"/>
<path d="M11.8533 38.5955C11.4669 38.9826 10.8414 38.9826 10.4543 38.5971L9.40526 37.5457C9.01742 37.1587 9.01742 36.5331 9.40526 36.1467L14.8261 30.7243C15.214 30.3372 15.8404 30.3372 16.2258 30.7251L17.2764 31.7733C17.6612 32.1611 17.6628 32.7875 17.2748 33.1738L11.8533 38.5955Z" fill="#80C1D1"/>
<path d="M16.1562 30.6763C15.766 30.3512 15.1923 30.3589 14.8261 30.7243L9.40525 36.1467C9.03746 36.513 9.02979 37.0866 9.35728 37.4775C9.74512 37.8042 10.3204 37.7973 10.6881 37.4304L16.4806 31.6363C16.8476 31.2686 16.4837 31.0697 16.1562 30.6763Z" fill="#9CD8E2"/>
<path d="M39.6925 8.30583C37.267 5.87639 36.4734 3.01262 37.8461 1.6377L38.9021 2.69368C38.3385 3.25962 38.7689 5.26554 40.7501 7.24749C42.7344 9.231 44.7418 9.6614 45.3062 9.09782L46.3622 10.1538C44.9872 11.5265 42.1234 10.7329 39.6925 8.30583Z" fill="#6D4417"/>
<path d="M47.1201 10.4506C46.8289 10.7439 46.3559 10.7439 46.0641 10.4513L37.548 1.93601C37.2546 1.64489 37.2546 1.17115 37.5495 0.880811L38.2091 0.220425C38.501 -0.0721731 38.9725 -0.0721731 39.2643 0.220425L47.7797 8.73576C48.0723 9.02767 48.0723 9.49915 47.7797 9.79096L47.1201 10.4506Z" fill="#6D4417"/>
<path d="M47.7806 8.73527L39.2653 0.219937C38.9733 -0.0726613 38.5019 -0.0726613 38.21 0.219937C37.9175 0.510275 37.9175 0.983327 38.21 1.2775L46.7231 9.79057C47.0173 10.0832 47.4903 10.0832 47.7807 9.79057C48.0732 9.49945 48.0732 9.02797 47.7806 8.73527Z" fill="#845425"/>
</g>
<defs>
<clipPath id="clip0_135_3">
<rect width="48" height="48" fill="white"/>
</clipPath>
</defs>
</svg>
